<?xml version="1.0" encoding="iso-8859-1"?>
<!-- Generator: Adobe Illustrator 16.0.0, SVG Export Plug-In . SVG Version: 6.00 Build 0)  -->
<!DOCTYPE svg PUBLIC "-//W3C//DTD SVG 1.1//EN" "http://www.w3.org/Graphics/SVG/1.1/DTD/svg11.dtd">
<svg version="1.1" id="Capa_1" xmlns="http://www.w3.org/2000/svg" xmlns:xlink="http://www.w3.org/1999/xlink" x="0px" y="0px"
	 width="66.137px" height="66.137px" viewBox="0 0 66.137 66.137" style="enable-background:new 0 0 66.137 66.137;"
	 xml:space="preserve">
<g>
	<g>
		<path d="M33.068,66.136C14.834,66.136,0,51.302,0,33.069C0,14.835,14.834,0.001,33.068,0.001s33.069,14.834,33.069,33.068
			C66.137,51.302,51.302,66.136,33.068,66.136z M33.068,4.001C17.04,4.001,4,17.041,4,33.069c0,16.027,13.04,29.066,29.068,29.066
			s29.069-13.039,29.069-29.066C62.137,17.041,49.096,4.001,33.068,4.001z"/>
		<circle cx="25.319" cy="25.616" r="4.335"/>
		<circle cx="41.602" cy="25.616" r="4.335"/>
		<path d="M33.406,48.419c-9.21,0-14.993-6.135-15.078-6.229l2.943-2.709c0.425,0.457,10.598,11.065,25.645-0.241l2.402,3.196
			C43.359,46.917,37.963,48.419,33.406,48.419z"/>
	</g>
</g>
<g>
</g>
<g>
</g>
<g>
</g>
<g>
</g>
<g>
</g>
<g>
</g>
<g>
</g>
<g>
</g>
<g>
</g>
<g>
</g>
<g>
</g>
<g>
</g>
<g>
</g>
<g>
</g>
<g>
</g>
</svg>
